HIERARCHY
ROOT Hips
{
 OFFSET 0.000000 0.000000 0.000000
 CHANNELS 6 Xposition Yposition Zposition Yrotation Xrotation Zrotation
 JOINT Chest
 {
  OFFSET 0.000000 9.585900 0.002600
  CHANNELS 3 Yrotation Xrotation Zrotation
  JOINT Chest2
  {
   OFFSET 0.000000 9.601200 -0.005300
   CHANNELS 3 Yrotation Xrotation Zrotation
   JOINT Chest3
   {
    OFFSET 0.000000 9.561800 0.000000
    CHANNELS 3 Yrotation Xrotation Zrotation
    JOINT Chest4
    {
     OFFSET 0.000000 9.552100 0.000000
     CHANNELS 3 Yrotation Xrotation Zrotation
     JOINT Neck
     {
      OFFSET 0.000000 14.453000 0.000000
      CHANNELS 3 Yrotation Xrotation Zrotation
      JOINT Head
      {
       OFFSET 0.000000 8.936500 -0.011300
       CHANNELS 3 Yrotation Xrotation Zrotation
       End Site
       {
        OFFSET 0.000000 17.073600 -0.006000
       }
      }
     }
     JOINT RightCollar
     {
      OFFSET -2.921100 9.558500 0.000000
      CHANNELS 3 Yrotation Xrotation Zrotation
      JOINT RightShoulder
      {
       OFFSET -13.519700 0.000000 0.000000
       CHANNELS 3 Yrotation Xrotation Zrotation
       JOINT RightElbow
       {
        OFFSET 0.000000 -29.696600 0.000000
        CHANNELS 3 Yrotation Xrotation Zrotation
        JOINT RightWrist
        {
         OFFSET 0.000000 -24.004700 0.000000
         CHANNELS 3 Yrotation Xrotation Zrotation
         End Site
         {
          OFFSET 0.000000 -17.728500 0.000000
         }
        }
       }
      }
     }
     JOINT LeftCollar
     {
      OFFSET 2.921100 9.558500 0.000000
      CHANNELS 3 Yrotation Xrotation Zrotation
      JOINT LeftShoulder
      {
       OFFSET 13.519700 0.000000 0.000000
       CHANNELS 3 Yrotation Xrotation Zrotation
       JOINT LeftElbow
       {
        OFFSET 0.000000 -29.696600 0.000000
        CHANNELS 3 Yrotation Xrotation Zrotation
        JOINT LeftWrist
        {
         OFFSET 0.000000 -24.004700 0.000000
         CHANNELS 3 Yrotation Xrotation Zrotation
         End Site
         {
          OFFSET 0.000000 -17.728500 0.000000
         }
        }
       }
      }
     }
    }
   }
  }
 }
 JOINT RightHip
 {
  OFFSET -7.771700 -0.012900 -0.001300
  CHANNELS 3 Yrotation Xrotation Zrotation
  JOINT RightKnee
  {
   OFFSET 0.000000 -40.869800 0.001200
   CHANNELS 3 Yrotation Xrotation Zrotation
   JOINT RightAnkle
   {
    OFFSET 0.000000 -39.717900 0.002100
    CHANNELS 3 Yrotation Xrotation Zrotation
    JOINT RightToe
    {
     OFFSET 0.000000 -4.965400 11.033500
     CHANNELS 3 Yrotation Xrotation Zrotation
     End Site
     {
      OFFSET 0.000000 -1.423100 5.872300
     }
    }
   }
  }
 }
 JOINT LeftHip
 {
  OFFSET 7.771700 -0.012900 -0.001300
  CHANNELS 3 Yrotation Xrotation Zrotation
  JOINT LeftKnee
  {
   OFFSET 0.000000 -40.869800 0.001200
   CHANNELS 3 Yrotation Xrotation Zrotation
   JOINT LeftAnkle
   {
    OFFSET 0.000000 -39.717900 0.002100
    CHANNELS 3 Yrotation Xrotation Zrotation
    JOINT LeftToe
    {
     OFFSET 0.000000 -4.965400 11.033500
     CHANNELS 3 Yrotation Xrotation Zrotation
     End Site
     {
      OFFSET 0.000000 -1.423100 5.872300
     }
    }
   }
  }
 }
}
MOTION
Frames: 12
Frame Time: 0.008333
0.000000 85.388000 0.000000 0.000000 -5.767877 0.000000 0.000000 11.653817 0.000000 0.000000 -5.885947 0.000000 0.000000 -0.000000 0.000000 0.000000 -0.000000 0.000000 0.000000 12.528835 0.000000 0.000000 0.711642 0.000000 0.000000 -0.000000 0.000000 0.000000 0.000000 -90.000000 0.000000 -2.309062 0.000000 0.000000 2.309062 0.000000 0.000000 -0.000000 0.000000 0.000000 -0.000000 90.000000 0.000000 -2.309062 0.000000 0.000000 2.309062 0.000000 0.000000 8.520406 0.000000 0.000000 1.905762 0.000000 -0.000000 -4.658285 0.000000 0.000000 -0.000000 0.000000 0.000000 8.520406 0.000000 0.000000 1.905762 0.000000 -0.000000 -4.658285 0.000000 0.000000 -0.000000 0.000000
-23.084322 50.328061 27.100509 162.917752 -7.812332 -0.354482 3.994714 7.608348 0.992828 0.208289 0.407493 0.002838 0.361130 0.705524 0.005766 3.725553 7.242516 0.264972 2.953048 17.082486 0.037655 5.438004 -4.003307 -0.931869 2.754704 6.825896 1.392961 -8.442833 -14.867949 -11.165573 -63.581356 -69.992023 90.253257 -4.057627 -3.039545 -22.900571 -6.319388 2.833371 -0.044552 22.774207 -7.515697 2.671560 87.251628 -77.560157 -110.044069 1.277288 8.493117 12.357614 -2.948967 -72.839079 -0.099214 -134.337527 81.950821 -133.643694 -3.867845 -16.623940 0.763671 -0.274587 0.736350 -0.132348 -9.943260 -76.173626 28.739097 116.757167 79.430593 113.570054 -16.963238 -22.910589 0.669479 -0.249358 -0.968907 -0.085446
-23.085242 50.328493 27.102763 162.910422 -7.813590 -0.347902 3.997641 7.597622 0.986712 0.207572 0.412933 0.002256 0.357971 0.698237 0.005055 3.735165 7.238314 0.266045 2.955699 17.105630 0.040545 5.456185 -3.934052 -0.925142 2.754750 6.838590 1.404644 -8.393240 -14.868593 -11.197818 -63.557772 -69.979348 90.206415 -4.052685 -3.031281 -22.884075 -6.313711 2.855083 -0.048800 22.760673 -7.514778 2.670223 87.152999 -77.563263 -109.941550 1.262413 8.491845 12.354242 -2.939645 -72.838384 -0.116169 -134.367969 81.958028 -133.666230 -3.865170 -16.624708 0.762885 -0.271981 0.736220 -0.141178 -9.920716 -76.176571 28.726535 116.764258 79.434667 113.575636 -16.967145 -22.890195 0.675002 -0.224618 -0.976220 -0.089129
-23.083199 50.329027 27.104697 162.903045 -7.822046 -0.355539 4.005956 7.596178 0.996914 0.206310 0.400946 0.002330 0.357040 0.707531 0.003650 3.740607 7.235478 0.266454 2.958148 17.126235 0.043572 5.470682 -3.879191 -0.916836 2.754148 6.850830 1.418302 -8.378927 -14.869474 -11.217531 -63.518062 -69.976534 90.176517 -4.051373 -3.023838 -22.875342 -6.315337 2.872849 -0.048354 22.756997 -7.470580 2.648448 87.190746 -77.582407 -109.980534 1.269681 8.548650 12.340031 -2.980441 -72.827847 -0.076682 -134.386455 81.965821 -133.683085 -3.852668 -16.622744 0.758144 -0.281496 0.733766 -0.146821 -9.969901 -76.172998 28.784168 116.798632 79.433380 113.603338 -16.928703 -22.860208 0.674110 -0.203450 -0.996853 -0.093688
-23.081378 50.329520 27.105330 162.890070 -7.836177 -0.356473 4.019074 7.595077 1.002885 0.206811 0.412715 0.000590 0.359930 0.682033 0.007386 3.754881 7.230991 0.265979 2.956496 17.171422 0.049292 5.472442 -3.832543 -0.906976 2.750016 6.878097 1.430155 -8.364254 -14.867068 -11.235292 -63.490453 -69.974260 90.139345 -4.046290 -2.986820 -22.841560 -6.332540 2.908370 -0.049300 22.758714 -7.439590 2.633847 87.120367 -77.592291 -109.912409 1.257112 8.533399 12.328421 -3.032807 -72.813489 -0.026666 -134.433952 81.975333 -133.737731 -3.838958 -16.617954 0.751328 -0.299327 0.725732 -0.150821 -9.968255 -76.159243 28.794603 116.802060 79.432856 113.601606 -16.888277 -22.844126 0.668993 -0.211577 -1.009589 -0.097996
-23.079216 50.329921 27.104468 162.886278 -7.856814 -0.355603 4.021305 7.595604 1.006356 0.208371 0.417484 0.001184 0.358809 0.680610 0.005945 3.758085 7.228405 0.265837 2.971782 17.206508 0.058493 5.463547 -3.819226 -0.906081 2.749436 6.895420 1.434528 -8.349655 -14.868315 -11.241605 -63.437195 -69.970886 90.085547 -4.042098 -2.986166 -22.836553 -6.332603 2.936987 -0.053913 22.760204 -7.411127 2.620319 87.045023 -77.602635 -109.835956 1.241947 8.513489 12.314845 -3.048831 -72.794433 -0.022188 -134.505000 81.976532 -133.789538 -3.853231 -16.614101 0.727085 -0.276984 0.713905 -0.142468 -9.972605 -76.138025 28.809909 116.821039 79.436291 113.610376 -16.896838 -22.819252 0.679737 -0.213828 -1.024423 -0.102556
-23.079436 50.329838 27.103691 162.882059 -7.869469 -0.339071 4.022337 7.601017 0.991875 0.208521 0.408918 0.000902 0.358810 0.688969 0.006251 3.758740 7.217734 0.265305 2.977597 17.232028 0.063718 5.464309 -3.797024 -0.902137 2.749477 6.907588 1.452058 -8.331569 -14.859831 -11.256516 -63.386366 -69.970468 90.036009 -4.034201 -3.001080 -22.841358 -6.325960 2.965607 -0.057170 22.763977 -7.377658 2.606274 86.967485 -77.612614 -109.760437 1.255297 8.576318 12.308002 -3.011036 -72.785090 -0.068375 -134.571555 81.979022 -133.849756 -3.859548 -16.612231 0.718475 -0.268705 0.709081 -0.135420 -9.913587 -76.126173 28.758441 116.787864 79.424583 113.561031 -16.908559 -22.783176 0.695645 -0.295174 -1.046517 -0.120145
-23.077512 50.329613 27.101944 162.867496 -7.888347 -0.329837 4.034316 7.611988 0.987107 0.207026 0.400589 0.002195 0.360516 0.697299 0.004912 3.759445 7.216608 0.264210 2.982429 17.245267 0.068367 5.484062 -3.711498 -0.885355 2.746755 6.915876 1.461968 -8.314626 -14.847433 -11.249095 -63.354143 -69.981843 90.000267 -4.024196 -2.997486 -22.832448 -6.305809 2.993243 -0.051479 22.761366 -7.346415 2.581715 86.878253 -77.624234 -109.674769 1.257801 8.609042 12.296386 -2.989978 -72.768687 -0.083970 -134.621126 81.980822 -133.899500 -3.849187 -16.606206 0.716880 -0.276614 0.701830 -0.138367 -9.874675 -76.109929 28.738175 116.789376 79.417056 113.552665 -16.910682 -22.738457 0.702643 -0.254934 -1.078013 -0.118013
-23.074251 50.329129 27.100231 162.865208 -7.906617 -0.328397 4.032697 7.613134 0.987565 0.207150 0.400236 0.002139 0.360522 0.696821 0.004768 3.762120 7.224217 0.263903 2.986904 17.256643 0.074602 5.497016 -3.658071 -0.874311 2.744452 6.925879 1.470710 -8.305255 -14.843348 -11.251328 -63.309817 -69.971739 89.956114 -4.019617 -2.998783 -22.825281 -6.301216 3.005771 -0.051053 22.772971 -7.299584 2.568848 86.779330 -77.635352 -109.576991 1.241231 8.586599 12.274754 -2.997477 -72.751937 -0.086086 -134.736626 81.986792 -134.000952 -3.857899 -16.603959 0.698959 -0.268469 0.693888 -0.133355 -9.865353 -76.093210 28.739706 116.774124 79.415999 113.528615 -16.919822 -22.686797 0.707627 -0.280829 -1.108446 -0.120087
-23.069916 50.328619 27.097426 162.870881 -7.931152 -0.330773 4.025407 7.620811 0.990352 0.206923 0.399907 0.002314 0.358349 0.678629 0.006347 3.762969 7.237605 0.265976 2.992942 17.277703 0.079249 5.506910 -3.620379 -0.866932 2.746463 6.947793 1.473245 -8.322617 -14.818304 -11.213774 -63.269027 -69.992862 89.929921 -4.046872 -2.978215 -22.820928 -6.288953 3.034800 -0.046564 22.780658 -7.250567 2.548363 86.848742 -77.645485 -109.656880 1.250195 8.656027 12.284039 -3.017823 -72.727890 -0.085179 -134.829860 81.982886 -134.073147 -3.861110 -16.606473 0.673302 -0.252888 0.685974 -0.125100 -9.874999 -76.067357 28.750355 116.753223 79.420336 113.498134 -16.915965 -22.630866 0.706149 -0.285312 -1.109142 -0.119908
-23.066052 50.328062 27.094086 162.864160 -7.957039 -0.326200 4.030057 7.630427 0.990621 0.206688 0.399443 0.002275 0.358420 0.679725 0.003992 3.760646 7.232539 0.268221 2.998536 17.296842 0.082402 5.515067 -3.588660 -0.857826 2.748739 6.969059 1.475289 -8.348774 -14.797356 -11.178837 -63.246634 -70.019067 89.930556 -4.067526 -2.969893 -22.819357 -6.273234 3.072404 -0.039542 22.792220 -7.204722 2.520625 86.929799 -77.655677 -109.757720 1.257069 8.723608 12.301997 -3.012206 -72.703529 -0.095583 -134.911353 81.981891 -134.142445 -3.862760 -16.605863 0.660891 -0.245004 0.678982 -0.124416 -9.853267 -76.041284 28.739108 116.751468 79.426109 113.490640 -16.914717 -22.567228 0.700543 -0.294275 -1.134065 -0.117955
-23.063150 50.327133 27.093461 162.858335 -7.965515 -0.319222 4.033286 7.612589 0.983437 0.207740 0.409963 0.002310 0.356913 0.682521 0.005395 3.754378 7.217856 0.268912 3.005091 17.322849 0.088172 5.521560 -3.567083 -0.852754 2.745373 6.999429 1.481406 -8.359395 -14.787182 -11.159793 -63.195849 -70.008310 89.887412 -4.065261 -2.969296 -22.809281 -6.262864 3.102362 -0.042331 22.810278 -7.160427 2.508391 86.572783 -77.658307 -109.383869 1.211420 8.656185 12.258335 -3.005415 -72.696526 -0.105006 -134.972416 81.984323 -134.198423 -3.861412 -16.607262 0.653111 -0.245908 0.678187 -0.124674 -9.842791 -76.029161 28.745482 116.718813 79.435246 113.444363 -16.933133 -22.496783 0.696283 -0.293697 -1.151018 -0.110817
